<svg width="895" height="415" viewBox="0 0 895 415" fill="none" xmlns="http://www.w3.org/2000/svg">
<g filter="url(#filter0_d_42_779)">
<path d="M60.6484 175.67L87.9578 214.318L99.7672 185.101L60.6484 175.67Z" fill="#8100E4"/>
<path d="M99.7672 185.101L81.1304 141.461L60.6484 175.67L99.7672 185.101Z" fill="#6700B5"/>
<path d="M81.1304 141.461L50.6842 122.784L60.6484 175.67L81.1304 141.461Z" fill="#8730CA"/>
<path d="M15.2559 152.556L60.6484 175.67L50.6842 122.784L15.2559 152.556Z" fill="#9100FF"/>
<path d="M99.7672 135.728L81.1304 141.461L99.7672 185.101V135.728Z" fill="#76419E"/>
<path d="M99.7672 135.728L50.6842 122.784L81.1304 141.461L99.7672 135.728Z" fill="#DDB1FF"/>
<path d="M60.6484 81.5479L50.6842 122.784L99.7672 135.728L80.2078 108.638L60.6484 81.5479Z" fill="#AB3DFF"/>
<path d="M60.6484 81.5479L4 110.21L50.6842 122.784L60.6484 81.5479Z" fill="#7E00DF"/>
<path d="M4 110.21L15.2559 152.556L50.6842 122.784L4 110.21Z" fill="#581988"/>
<path d="M82.9757 238.634L77.9936 262.95L112.499 271.364L82.9757 238.634Z" fill="#47017D"/>
<path d="M112.499 271.364L147.005 279.778L160.844 221.899L112.499 271.364Z" fill="#570099"/>
<path d="M160.844 221.899L147.005 279.778L198.671 260.547L160.844 221.899Z" fill="#6F06BF"/>
<path d="M206.237 309.734L252.736 313.987L234.838 271.364L206.237 309.734Z" fill="#380063"/>
<path d="M252.736 313.987L240.373 365.764L276.54 367.118L252.736 313.987Z" fill="#482662"/>
<path d="M276.54 367.118L324.331 368.907V309.734L276.54 367.118Z" fill="#450A72"/>
<path d="M374.152 347.272L348.688 321.569L324.331 368.907L374.152 347.272Z" fill="#8538C0"/>
<path d="M391.497 378.893L441.319 397.015L433.938 362.25L391.497 378.893Z" fill="#300155"/>
<path d="M433.938 362.25L441.319 397.015L457.926 354.299L433.938 362.25Z" fill="#420074"/>
<path d="M457.926 354.299L478.038 407L513.098 348.197C512.212 348.197 475.947 352.265 457.926 354.299Z" fill="#540492"/>
<path d="M478.038 407L562.365 336.732C546.312 340.554 513.983 348.197 513.098 348.197L478.038 407Z" fill="#7415BD"/>
<path d="M562.365 383.303L602.407 372.051L598.347 336.732C598.347 338.063 574.359 368.334 562.365 383.303Z" fill="#501E77"/>
<path d="M478.038 407L562.365 383.303V336.732L478.038 407Z" fill="#4F018B"/>
<path d="M122.279 53.4407L60.6484 81.5479L80.2078 108.638L101.243 81.0394L122.279 53.4407Z" fill="#D093FF"/>
<path d="M112.315 214.318L82.9757 238.634L112.499 271.364L112.407 242.841L112.315 214.318Z" fill="#6A00BA"/>
<path d="M112.315 214.318L112.407 242.841L112.499 271.364L160.844 221.899L112.315 214.318Z" fill="#8B29D5"/>
<path d="M112.315 214.318H87.9578L82.9757 238.634L112.315 214.318Z" fill="#A024FF"/>
<path d="M112.315 214.318L99.7672 185.101L87.9578 214.318H112.315Z" fill="#D194FF"/>
<path d="M99.7672 185.101L112.315 214.318C115.267 214.779 145.898 195.032 160.844 185.101H99.7672Z" fill="#6C00BF"/>
<path d="M160.844 221.899V185.101C145.898 195.032 115.267 214.779 112.315 214.318L160.844 221.899Z" fill="#400170"/>
<path d="M99.7672 185.101L148.942 160.692L142.761 141.461L99.7672 185.101Z" fill="#720DBF"/>
<path d="M160.844 185.101L148.942 160.692L99.7672 185.101H160.844Z" fill="#9F2CF6"/>
<path d="M99.7672 135.728L112.315 128.332L80.2078 108.638L99.7672 135.728Z" fill="#8C27D9"/>
<path d="M80.2078 108.638L112.315 128.332L101.243 81.0394L80.2078 108.638Z" fill="#B58BD5"/>
<path d="M112.315 128.332L99.7672 135.728L142.761 141.461L112.315 128.332Z" fill="#420074"/>
<path d="M142.761 141.461L99.7672 135.728V185.101L142.761 141.461Z" fill="#A355DE"/>
<path d="M112.315 128.332L142.761 141.461L149.792 110.21L112.315 128.332Z" fill="#560E8D"/>
<path d="M175.606 97.7281L148.942 56.5843L112.315 128.332L149.792 110.21L175.606 97.7281Z" fill="#7D0FD0"/>
<path d="M101.243 81.0394L112.315 128.332L148.942 56.5843L125.093 68.8118L101.243 81.0394Z" fill="#9306FF"/>
<path d="M158.261 149.597L175.606 135.728L149.792 110.21L158.261 149.597Z" fill="#8E19E6"/>
<path d="M142.761 141.461L158.261 149.597L149.792 110.21L142.761 141.461Z" fill="#711CB3"/>
<path d="M148.942 160.692L158.261 149.597L142.761 141.461L148.942 160.692Z" fill="#6A2D99"/>
<path d="M148.942 160.692L160.844 185.101L158.261 149.597L148.942 160.692Z" fill="#8725D2"/>
<path d="M160.844 185.101L173.761 171.417L158.261 149.597L160.844 185.101Z" fill="#6407AA"/>
<path d="M175.606 135.728L158.261 149.597L173.761 171.417L175.606 135.728Z" fill="#9100FF"/>
<path d="M175.606 135.728L173.761 171.417L214.909 128.332L175.606 135.728Z" fill="#460A74"/>
<path d="M173.761 171.417L203.1 178.814L214.909 128.332L173.761 171.417Z" fill="#9947D8"/>
<path d="M175.606 135.728L214.909 128.332L209.927 89.6842L192.767 112.706L175.606 135.728Z" fill="#950AFF"/>
<path d="M209.927 89.6842L175.606 59.7278V97.7281V135.728L192.767 112.706L209.927 89.6842Z" fill="#AE84CE"/>
<path d="M175.606 135.728V97.7281L149.792 110.21L175.606 135.728Z" fill="#5B0A99"/>
<path d="M175.606 59.7278L148.942 56.5843L175.606 97.7281V59.7278Z" fill="#A040EA"/>
<path d="M122.279 53.4407L101.243 81.0394L125.093 68.8118L148.942 56.5843L122.279 53.4407Z" fill="#830CC8"/>
<path d="M261.594 99.6697L209.927 89.6842L214.909 128.332L261.594 99.6697Z" fill="#C77EFF"/>
<path d="M261.594 99.6697L214.909 128.332L272.665 118.901L261.594 99.6697Z" fill="#560296"/>
<path d="M272.665 118.901L214.909 128.332L252.736 154.59L272.665 118.901Z" fill="#3A0265"/>
<path d="M252.736 154.59L289.456 160.692L311.23 118.901C292.662 129.133 254.967 150.596 252.736 154.59Z" fill="#6B01BD"/>
<path d="M311.23 118.901H272.665L252.736 154.59C254.967 150.596 292.662 129.133 311.23 118.901Z" fill="#6E28A3"/>
<path d="M261.594 99.6697L272.665 118.901H311.23L261.594 99.6697Z" fill="#5D00A4"/>
<path d="M286.32 81.5479L261.594 99.6697L311.23 118.901L286.32 81.5479Z" fill="#AD45FD"/>
<path d="M280.23 49.7424L311.23 118.901L338.908 81.0394L280.23 49.7424Z" fill="#A231F9"/>
<path d="M280.23 49.7424L286.32 81.5479L311.23 118.901L280.23 49.7424Z" fill="#6503AF"/>
<path d="M338.908 81.0394L373.414 53.4407L280.23 49.7424L338.908 81.0394Z" fill="#D194FF"/>
<path d="M306.248 0L280.23 49.7424L373.414 53.4407L306.248 0Z" fill="#9F54D8"/>
<path d="M396.48 31.0659L306.248 0L373.414 53.4407L396.48 31.0659Z" fill="#BF6BFF"/>
<path d="M373.414 53.4407L399.616 86.5407L396.48 31.0659L373.414 53.4407Z" fill="#9202FF"/>
<path d="M412.718 70.2681L396.48 31.0659L399.616 86.5407L412.718 70.2681Z" fill="#8036B8"/>
<path d="M399.616 86.5407L412.718 97.7281V70.2681L399.616 86.5407Z" fill="#8B2FD2"/>
<path d="M412.718 97.7281L436.336 103.368L412.718 70.2681V97.7281Z" fill="#601B94"/>
<path d="M438.182 72.2097L412.718 70.2681L436.336 103.368L438.182 72.2097Z" fill="#7807CE"/>
<path d="M438.182 72.2097L436.336 103.368H452.943L438.182 72.2097Z" fill="#6414A1"/>
<path d="M463.646 74.1513L438.182 72.2097L452.943 103.368L463.646 74.1513Z" fill="#9A3BE3"/>
<path d="M464.937 120.75C464.507 106.45 463.646 77.11 463.646 74.1513L452.943 103.368L464.937 120.75Z" fill="#8633C5"/>
<path d="M463.646 74.1513C463.646 77.11 464.507 106.45 464.937 120.75L488.875 104.662C480.774 94.7691 470.383 82.2399 463.646 74.1513Z" fill="#A242EB"/>
<path d="M523.937 84.7575L463.646 74.1513C470.383 82.2399 480.774 94.7691 488.875 104.662L509.961 92.458L523.937 84.7575Z" fill="#5D0C9A"/>
<path d="M500.919 119.826L509.961 92.458L488.875 104.662C495.713 113.014 500.919 119.487 500.919 119.826Z" fill="#8118D0"/>
<path d="M509.961 92.458L528.229 104.662L523.937 84.7575L509.961 92.458Z" fill="#7C18C9"/>
<path d="M574.359 110.21L523.937 84.7575L528.229 104.662C543.236 106.237 573.474 109.552 574.359 110.21Z" fill="#BA6FF3"/>
<path d="M577.865 110.785L574.359 110.21C573.474 109.552 543.236 106.237 528.229 104.662L548.711 125.373L577.865 110.785Z" fill="#CB88FF"/>
<path d="M575.282 119.826L577.865 110.785L548.711 125.373L562.365 123.154L575.282 119.826Z" fill="#C27EF5"/>
<path d="M627.317 118.901L577.865 110.785L575.282 119.826L627.317 118.901Z" fill="#9243CF"/>
<path d="M575.282 119.826L590.597 152.186L627.317 118.901L575.282 119.826Z" fill="#A963DE"/>
<path d="M684.519 135.728C667.482 130.736 632.189 120.38 627.317 118.901L636.912 157.363L684.519 135.728Z" fill="#8426CC"/>
<path d="M678.43 107.896L627.317 118.901C632.189 120.38 667.482 130.736 684.519 135.728L678.43 107.896Z" fill="#891DDD"/>
<path d="M627.317 118.901L590.597 152.186L636.912 157.363L627.317 118.901Z" fill="#560D8E"/>
<path d="M666.436 186.21L692.638 170.677L684.519 135.728L636.912 157.363L666.436 186.21Z" fill="#6E14B3"/>
<path d="M666.436 186.21L636.912 157.363L616.799 191.203L666.436 186.21Z" fill="#833FB8"/>
<path d="M636.912 157.363L575.282 167.164L616.799 191.203L636.912 157.363Z" fill="#75409E"/>
<path d="M590.597 152.186L575.282 167.164L636.912 157.363L590.597 152.186Z" fill="#8F2CDA"/>
<path d="M575.282 167.164L590.597 152.186L566.425 148.118L575.282 167.164Z" fill="#7917C4"/>
<path d="M590.597 152.186L575.282 119.826L566.425 148.118L590.597 152.186Z" fill="#C581FA"/>
<path d="M575.282 119.826L562.365 123.154L566.425 148.118L575.282 119.826Z" fill="#9F66CA"/>
<path d="M566.425 148.118L562.365 123.154L550.74 139.242L566.425 148.118Z" fill="#AF47FF"/>
<path d="M562.365 123.154L548.711 125.373L550.74 139.242L562.365 123.154Z" fill="#CC89FF"/>
<path d="M535.979 154.59L550.74 167.164L566.425 148.118L535.979 154.59Z" fill="#7A3BA9"/>
<path d="M570.669 166.609L575.282 167.164L566.425 148.118L550.74 167.164L570.669 166.609Z" fill="#58128D"/>
<path d="M566.425 148.118L550.74 139.242L535.979 154.59L566.425 148.118Z" fill="#B24DFF"/>
<path d="M550.74 139.242L511.253 136.838L535.979 154.59L550.74 139.242Z" fill="#923FD2"/>
<path d="M550.74 139.242L548.711 125.373L528.229 118.901L550.74 139.242Z" fill="#D7A3FF"/>
<path d="M511.253 136.838L550.74 139.242L528.229 118.901L511.253 136.838Z" fill="#6313A1"/>
<path d="M528.229 104.662V118.901L548.711 125.373L528.229 104.662Z" fill="#7B34B2"/>
<path d="M528.229 118.901V104.662L513.836 109.47L528.229 118.901Z" fill="#9939E3"/>
<path d="M500.919 119.826L528.229 118.901L513.836 109.47L500.919 119.826Z" fill="#5C1691"/>
<path d="M528.229 104.662L509.961 92.458L513.836 109.47L528.229 104.662Z" fill="#7302CA"/>
<path d="M509.961 92.458L500.919 119.826L513.836 109.47L509.961 92.458Z" fill="#671C9F"/>
<path d="M500.919 119.826C500.919 119.487 495.713 113.014 488.875 104.662L483.759 127.315L500.919 119.826Z" fill="#6E23A8"/>
<path d="M500.919 129.256V119.826L483.759 127.315L500.919 129.256Z" fill="#B257F8"/>
<path d="M487.818 141.091L500.919 129.256L483.759 127.315L466.598 125.373L487.818 141.091Z" fill="#7F35B8"/>
<path d="M488.875 104.662L466.598 125.373L483.759 127.315L488.875 104.662Z" fill="#9337DA"/>
<path d="M500.919 129.256L511.253 136.838L528.229 118.901L500.919 119.826V129.256Z" fill="#6717A4"/>
<path d="M516.604 154.59H535.979L511.253 136.838L516.604 154.59Z" fill="#5E1398"/>
<path d="M516.604 154.59L511.253 136.838L487.818 141.091L516.604 154.59Z" fill="#7E3AB3"/>
<path d="M511.253 136.838L500.919 129.256L487.818 141.091L511.253 136.838Z" fill="#8D33D3"/>
<path d="M516.604 154.59L487.818 141.091L490.771 166.424L516.604 154.59Z" fill="#AF56F3"/>
<path d="M490.771 166.424L487.818 141.091L469.735 165.13L490.771 166.424Z" fill="#9653CA"/>
<path d="M464.937 139.242L469.735 165.13L487.818 141.091L464.937 139.242Z" fill="#D7A3FF"/>
<path d="M464.937 139.242L487.818 141.091L466.598 125.373L464.937 139.242Z" fill="#903ECF"/>
<path d="M469.735 165.13L464.937 139.242L441.319 160.692L469.735 165.13Z" fill="#C77EFF"/>
<path d="M461.062 129.256L450.914 125.373L428.402 118.901L441.319 160.692L464.937 139.242L461.062 129.256Z" fill="#9349CC"/>
<path d="M466.598 125.373L461.062 129.256L464.937 139.242L466.598 125.373Z" fill="#812AC3"/>
<path d="M461.062 129.256L466.598 125.373L464.937 120.75L461.062 129.256Z" fill="#632792"/>
<path d="M464.937 120.75L452.943 119.826L461.062 129.256L464.937 120.75Z" fill="#6A21A2"/>
<path d="M464.937 120.75L466.598 125.373L488.875 104.662L464.937 120.75Z" fill="#822AC4"/>
<path d="M452.943 119.826L450.914 125.373L461.062 129.256L452.943 119.826Z" fill="#8540B9"/>
<path d="M450.914 125.373L452.943 119.826L428.402 118.901L450.914 125.373Z" fill="#9742D9"/>
<path d="M452.943 119.826L464.937 120.75L452.943 103.368V111.597V119.826Z" fill="#AB5CE8"/>
<path d="M452.943 103.368L428.402 118.901L452.943 119.826V111.597V103.368Z" fill="#9A57CE"/>
<path d="M436.336 103.368L428.402 118.901L452.943 103.368H436.336Z" fill="#CD8EFE"/>
<path d="M436.336 103.368L412.718 97.7281L428.402 118.901L436.336 103.368Z" fill="#952FE3"/>
<path d="M412.718 97.7281L379.411 127.315L428.402 118.901L412.718 97.7281Z" fill="#C477FF"/>
<path d="M379.411 127.315L399.616 135.728L428.402 118.901L379.411 127.315Z" fill="#780FC8"/>
<path d="M428.402 118.901L399.616 135.728L418.382 160.692L428.402 118.901Z" fill="#BB62FF"/>
<path d="M441.319 160.692L428.402 118.901L418.382 160.692H441.319Z" fill="#8D16E8"/>
<path d="M441.319 191.203V160.692H418.382L441.319 191.203Z" fill="#8C0BEF"/>
<path d="M441.319 191.203L456.357 183.991L441.319 160.692V191.203Z" fill="#52078C"/>
<path d="M456.357 183.991L471.396 176.78L441.319 160.692L456.357 183.991Z" fill="#6204A9"/>
<path d="M471.396 176.78L469.735 165.13L441.319 160.692L471.396 176.78Z" fill="#9446CF"/>
<path d="M469.735 165.13L471.396 176.78L490.771 166.424L469.735 165.13Z" fill="#A142E9"/>
<path d="M520.294 173.266L490.771 166.424C491.939 173.205 494.276 186.95 494.276 187.69L494.28 187.706C494.576 188.256 511.697 178.338 520.294 173.266Z" fill="#6C1AAA"/>
<path d="M520.294 173.266L516.604 154.59L490.771 166.424L520.294 173.266Z" fill="#A13FEB"/>
<path d="M494.276 187.69C494.276 186.95 491.939 173.205 490.771 166.424L471.396 176.78L494.276 187.69Z" fill="#7814C5"/>
<path d="M520.294 173.266L548.711 176.78L527.521 164.408C527.501 164.415 527.491 164.409 527.491 164.39C525.276 167.372 520.737 173.321 520.294 173.266Z" fill="#BC6AFB"/>
<path d="M548.711 176.78L550.74 167.164L527.545 164.397C527.536 164.402 527.528 164.406 527.521 164.408L548.711 176.78Z" fill="#BD67FF"/>
<path d="M550.74 167.164L535.979 154.59C533.313 157.842 528.134 164.061 527.545 164.397L550.74 167.164Z" fill="#D69FFF"/>
<path d="M535.979 154.59H516.604C520.233 157.672 527.491 163.946 527.491 164.39L527.545 164.397C528.134 164.061 533.313 157.842 535.979 154.59Z" fill="#B759FF"/>
<path d="M516.604 154.59L520.294 173.266C520.737 173.321 525.276 167.372 527.491 164.39C527.491 163.946 520.233 157.672 516.604 154.59Z" fill="#9B17FF"/>
<path d="M548.711 176.78L520.294 173.266L536.348 224.303L548.711 176.78Z" fill="#6A24A1"/>
<path d="M566.978 173.266L570.669 166.609L550.74 167.164L548.711 176.78L566.978 173.266Z" fill="#8041B1"/>
<path d="M568.455 178.444L566.978 173.266L548.711 176.78L568.455 178.444Z" fill="#AA5FE3"/>
<path d="M574.359 181.403L575.282 167.164L571.407 173.266L574.359 181.403Z" fill="#7837AA"/>
<path d="M575.282 167.164L570.669 166.609L571.407 173.266L575.282 167.164Z" fill="#562080"/>
<path d="M570.669 166.609L566.978 173.266H571.407L570.669 166.609Z" fill="#B76BF2"/>
<path d="M575.282 167.164L574.359 181.403L616.799 191.203L575.282 167.164Z" fill="#9022E4"/>
<path d="M574.359 181.403L568.455 178.444L562.365 210.804C563.103 210.498 570.669 191.076 574.359 181.403Z" fill="#622096"/>
<path d="M568.455 178.444L574.359 181.403L571.407 173.266L568.455 178.444Z" fill="#632096"/>
<path d="M566.978 173.266L568.455 178.444L571.407 173.266H566.978Z" fill="#D9A7FF"/>
<path d="M574.359 181.403L586.907 200.634L616.799 191.203L574.359 181.403Z" fill="#C67BFF"/>
<path d="M562.365 210.804L586.907 200.634L574.359 181.403C570.669 191.076 563.103 210.498 562.365 210.804Z" fill="#AD6DDE"/>
<path d="M548.711 176.78L562.365 210.804L568.455 178.444L548.711 176.78Z" fill="#60288B"/>
<path d="M536.348 224.303L562.365 210.804L548.711 176.78L536.348 224.303Z" fill="#8335BF"/>
<path d="M499.997 212.468L536.348 224.303L520.294 173.266L499.997 212.468Z" fill="#8A1AE0"/>
<path d="M499.997 212.468L520.294 173.266C511.697 178.338 494.576 188.256 494.28 187.706L499.997 212.468Z" fill="#4D0088"/>
<path d="M494.276 187.69C488.522 193.165 477.331 203.616 476.116 204L499.997 212.468L494.28 187.706C494.278 187.702 494.276 187.696 494.276 187.69Z" fill="#8222CC"/>
<path d="M494.276 187.69L471.396 176.78C472.933 185.471 476.009 203.075 476.009 203.962L476.116 204C477.331 203.616 488.522 193.165 494.276 187.69Z" fill="#8D1FE0"/>
<path d="M471.396 176.78L456.357 183.991L476.009 203.962C476.009 203.075 472.933 185.471 471.396 176.78Z" fill="#59019D"/>
<path d="M456.357 183.991L466.598 224.303L476.009 203.962L456.357 183.991Z" fill="#B553FF"/>
<path d="M466.598 224.303L456.357 183.991L442.61 220.235L466.598 224.303Z" fill="#8900F2"/>
<path d="M456.357 183.991L441.319 191.203L442.61 220.235L456.357 183.991Z" fill="#680FAD"/>
<path d="M441.319 191.203C435.598 202.236 423.9 224.562 422.866 225.597L441.319 243.719L442.61 220.235L441.319 191.203Z" fill="#450F6E"/>
<path d="M441.319 191.203L406.997 200.634L422.866 225.597C423.9 224.562 435.598 202.236 441.319 191.203Z" fill="#531881"/>
<path d="M406.997 200.634L441.319 191.203L404.599 163.836L406.997 200.634Z" fill="#8D33D3"/>
<path d="M399.616 135.728L404.599 163.836L441.319 191.203L418.382 160.692L399.616 135.728Z" fill="#6C22A4"/>
<path d="M348.688 141.461L383.378 167.349L404.599 163.836L348.688 141.461Z" fill="#C374FF"/>
<path d="M404.599 163.836L383.378 167.349L373.414 206.921L404.599 163.836Z" fill="#B95EFF"/>
<path d="M373.414 206.921L406.997 200.634L404.599 163.836L373.414 206.921Z" fill="#5F109A"/>
<path d="M348.688 141.461V194.347L383.378 167.349L348.688 141.461Z" fill="#8924D7"/>
<path d="M311.23 118.901L315.105 149.597L348.688 141.461C337.494 134.249 314.33 119.641 311.23 118.901Z" fill="#8213D8"/>
<path d="M348.688 141.461L359.206 118.901H311.23C314.33 119.641 337.494 134.249 348.688 141.461Z" fill="#670BAE"/>
<path d="M348.688 141.461L315.105 149.597L329.867 178.814L348.688 141.461Z" fill="#70369C"/>
<path d="M329.867 178.814L348.688 194.347V141.461L329.867 178.814Z" fill="#AD6DDE"/>
<path d="M359.206 118.901L348.688 141.461L374.152 138.594L359.206 118.901Z" fill="#4C0483"/>
<path d="M379.411 127.315L359.206 118.901L374.152 138.594L379.411 127.315Z" fill="#5C059F"/>
<path d="M359.206 118.901L379.411 127.315C381.061 123.986 376.1 76.6785 373.414 53.4407L359.206 118.901Z" fill="#961FF2"/>
<path d="M379.411 127.315L399.616 86.5407L373.414 53.4407C376.1 76.6785 381.061 123.986 379.411 127.315Z" fill="#7F2EBE"/>
<path d="M379.411 127.315L412.718 97.7281L399.616 86.5407L379.411 127.315Z" fill="#D6A1FF"/>
<path d="M404.599 163.836L399.616 135.728L374.152 138.594L348.688 141.461L404.599 163.836Z" fill="#6D1CAA"/>
<path d="M399.616 135.728L379.411 127.315L374.152 138.594L399.616 135.728Z" fill="#9307FE"/>
<path d="M338.908 81.0394L359.206 118.901L373.414 53.4407L338.908 81.0394Z" fill="#6D1DAA"/>
<path d="M311.23 118.901H359.206L338.908 81.0394L311.23 118.901Z" fill="#7D02DB"/>
<path d="M315.105 149.597L311.23 118.901L289.456 160.692L315.105 149.597Z" fill="#7A03D4"/>
<path d="M315.105 149.597L289.456 160.692L293.885 178.814L315.105 149.597Z" fill="#960DFF"/>
<path d="M293.885 178.814H329.867L315.105 149.597L293.885 178.814Z" fill="#6816A7"/>
<path d="M293.885 178.814L289.456 160.692L252.736 154.59L293.885 178.814Z" fill="#5C0E98"/>
<path d="M234.838 194.347L293.885 178.814L252.736 154.59L234.838 194.347Z" fill="#A142EA"/>
<path d="M214.909 128.332L234.838 194.347L252.736 154.59L214.909 128.332Z" fill="#8912E4"/>
<path d="M203.1 178.814L234.838 194.347L214.909 128.332L203.1 178.814Z" fill="#7530AA"/>
<path d="M203.1 178.814L173.761 171.417L179.481 206.921L203.1 178.814Z" fill="#751ABA"/>
<path d="M160.844 185.101L179.481 206.921L173.761 171.417L160.844 185.101Z" fill="#610F9F"/>
<path d="M160.844 221.899L179.481 206.921L160.844 185.101V221.899Z" fill="#61149C"/>
<path d="M179.481 206.921L160.844 221.899L198.671 260.547L179.481 206.921Z" fill="#8B13E6"/>
<path d="M179.481 206.921L198.671 260.547L229.856 218.016L179.481 206.921Z" fill="#58009A"/>
<path d="M179.481 206.921L229.856 218.016L203.1 178.814L179.481 206.921Z" fill="#BA65FB"/>
<path d="M229.856 218.016L234.838 194.347L203.1 178.814L229.856 218.016Z" fill="#700FBA"/>
<path d="M229.856 218.016L272.665 218.016L234.838 194.347L229.856 218.016Z" fill="#8610E0"/>
<path d="M234.838 194.347L272.665 218.016L293.885 178.814L234.838 194.347Z" fill="#791BC0"/>
<path d="M272.665 218.016L297.022 260.547L293.885 178.814L272.665 218.016Z" fill="#972FE6"/>
<path d="M329.867 178.814H293.885L297.022 260.547L319.534 237.617L329.867 178.814Z" fill="#7520B5"/>
<path d="M348.688 194.347L329.867 178.814L319.534 237.617L348.688 194.347Z" fill="#C07DF3"/>
<path d="M348.688 194.347L319.534 237.617L338.908 251.671L348.688 194.347Z" fill="#470678"/>
<path d="M373.414 206.921L348.688 194.347L338.908 251.671L373.414 206.921Z" fill="#7C16C9"/>
<path d="M348.688 194.347L373.414 206.921L383.378 167.349L348.688 194.347Z" fill="#7A34B1"/>
<path d="M338.908 251.671L319.534 237.617L297.022 260.547L338.908 251.671Z" fill="#420074"/>
<path d="M373.414 260.547V206.921L338.908 251.671C341.418 253.298 362.958 258.266 373.414 260.547Z" fill="#6E21A8"/>
<path d="M297.022 260.547L272.665 218.016L261.594 267.114C273.96 264.9 287.849 262.298 297.022 260.547Z" fill="#CA89FB"/>
<path d="M261.594 267.114L272.665 218.016L229.856 218.016L261.594 267.114Z" fill="#51028D"/>
<path d="M234.838 271.364C237.115 271.364 248.501 269.457 261.594 267.114L229.856 218.016L234.838 271.364Z" fill="#6403AF"/>
<path d="M198.671 260.547L234.838 271.364L229.856 218.016L198.671 260.547Z" fill="#7A09D0"/>
<path d="M198.671 260.547L206.237 309.734L234.838 271.364L198.671 260.547Z" fill="#962BE9"/>
<path d="M147.005 279.778L206.237 309.734L198.671 260.547L147.005 279.778Z" fill="#430076"/>
<path d="M206.237 309.734L240.373 365.764L252.736 313.987L206.237 309.734Z" fill="#420074"/>
<path d="M252.736 313.987L276.54 367.118L286.32 301.043L252.736 313.987Z" fill="#651C9D"/>
<path d="M252.736 313.987L286.32 301.043L297.022 260.547L252.736 313.987Z" fill="#761BBC"/>
<path d="M252.736 313.987L297.022 260.547C287.849 262.298 273.96 264.9 261.594 267.114C248.501 269.457 237.115 271.364 234.838 271.364L252.736 313.987Z" fill="#9047C8"/>
<path d="M297.022 260.547L286.32 301.043L324.331 309.734L297.022 260.547Z" fill="#51038D"/>
<path d="M324.331 309.734L338.908 251.671L297.022 260.547L324.331 309.734Z" fill="#AC60E6"/>
<path d="M286.32 301.043L276.54 367.118L324.331 309.734L286.32 301.043Z" fill="#350559"/>
<path d="M348.688 321.569L324.331 309.734V368.907L348.688 321.569Z" fill="#7429AD"/>
<path d="M324.331 309.734L348.688 321.569L338.908 251.671L324.331 309.734Z" fill="#884DB4"/>
<path d="M373.414 260.547C362.958 258.266 341.418 253.298 338.908 251.671L348.688 321.569L373.414 260.547Z" fill="#622C8B"/>
<path d="M388.361 313.987L373.414 260.547L348.688 321.569L388.361 313.987Z" fill="#6D2E9D"/>
<path d="M388.361 313.987L422.128 309.734L404.968 258.512L388.361 313.987Z" fill="#58009A"/>
<path d="M373.414 260.547L404.968 258.512L422.866 225.597L373.414 260.547Z" fill="#6E05BE"/>
<path d="M373.414 260.547L388.361 313.987L404.968 258.512L373.414 260.547Z" fill="#51008E"/>
<path d="M373.414 206.921V260.547L422.866 225.597C406.997 219.372 374.89 206.921 373.414 206.921Z" fill="#B66EED"/>
<path d="M406.997 200.634L373.414 206.921C374.89 206.921 406.997 219.372 422.866 225.597L406.997 200.634Z" fill="#530093"/>
<path d="M404.968 258.512C406.001 258.512 432.092 262.457 445.009 264.43L441.319 243.719L404.968 258.512Z" fill="#6305AC"/>
<path d="M422.866 225.597L404.968 258.512L441.319 243.719L422.866 225.597Z" fill="#9A15FF"/>
<path d="M422.128 309.734L445.009 264.43C432.092 262.457 406.001 258.512 404.968 258.512L422.128 309.734Z" fill="#AC3FFF"/>
<path d="M466.598 224.303L445.009 264.43L491.14 287.174L466.598 224.303Z" fill="#8A09ED"/>
<path d="M466.598 224.303L442.61 220.235L441.319 243.719C441.351 243.127 458.185 230.529 466.598 224.303Z" fill="#6404AD"/>
<path d="M445.009 264.43L466.598 224.303C458.185 230.529 441.351 243.127 441.319 243.719L445.009 264.43Z" fill="#4A0182"/>
<path d="M499.997 247.972L466.598 224.303L491.14 287.174L499.997 247.972Z" fill="#6C00BF"/>
<path d="M499.997 212.468L466.598 224.303L499.997 247.972V212.468Z" fill="#C578FF"/>
<path d="M466.598 224.303L499.997 212.468L476.116 204C476.046 204.023 476.009 204.011 476.009 203.962L466.598 224.303Z" fill="#7128A8"/>
<path d="M536.348 224.303L499.997 212.468V247.972L536.348 224.303Z" fill="#883EC0"/>
<path d="M544.282 250.931L536.348 224.303L499.997 247.972C513.651 248.774 541.625 250.487 544.282 250.931Z" fill="#C478FE"/>
<path d="M530.812 264.43L544.282 250.931C541.625 250.487 513.651 248.774 499.997 247.972L530.812 264.43Z" fill="#A959E5"/>
<path d="M499.997 247.972L491.14 287.174L530.812 264.43L499.997 247.972Z" fill="#5D00A4"/>
<path d="M579.647 275.326C579.654 275.318 579.661 275.313 579.667 275.31L544.282 250.931L530.812 264.43L579.647 275.326Z" fill="#57128C"/>
<path d="M579.71 275.34V241.5L544.282 250.931L579.667 275.31C579.687 275.3 579.701 275.31 579.71 275.34Z" fill="#4B1773"/>
<path d="M544.282 250.931L579.71 241.5L536.348 224.303L544.282 250.931Z" fill="#AF62EA"/>
<path d="M579.71 241.5L562.365 210.804L536.348 224.303L579.71 241.5Z" fill="#5E0A9E"/>
<path d="M562.365 210.804L579.71 241.5L586.907 200.634L562.365 210.804Z" fill="#921EEA"/>
<path d="M602.407 233.734L586.907 200.634L579.71 241.5L602.407 233.734Z" fill="#C06DFF"/>
<path d="M602.407 233.734L579.71 275.34L616.799 277.004L602.407 233.734Z" fill="#751CB9"/>
<path d="M586.907 200.634L602.407 233.734L618.46 218.016L586.907 200.634Z" fill="#BA62FD"/>
<path d="M618.46 218.016L616.799 191.203L586.907 200.634L618.46 218.016Z" fill="#A554E3"/>
<path d="M618.46 218.016L646.877 237.617L616.799 191.203L618.46 218.016Z" fill="#8326CA"/>
<path d="M618.46 218.016L602.407 233.734L646.877 237.617L618.46 218.016Z" fill="#60139A"/>
<path d="M646.877 237.617L602.407 233.734L616.799 277.004L646.877 237.617Z" fill="#7B18C7"/>
<path d="M579.71 241.5V275.34L602.407 233.734L579.71 241.5Z" fill="#AE50F5"/>
<path d="M671.418 275.34L646.877 237.617L616.799 277.004L671.418 275.34Z" fill="#C06EFF"/>
<path d="M646.877 237.617L671.418 275.34L678.245 237.617H646.877Z" fill="#8234BE"/>
<path d="M666.436 186.21L646.877 237.617H678.245L666.436 186.21Z" fill="#B360F3"/>
<path d="M646.877 237.617L666.436 186.21L616.799 191.203L646.877 237.617Z" fill="#9B41DF"/>
<path d="M678.245 237.617L701.864 228.001L666.436 186.21L678.245 237.617Z" fill="#5D1792"/>
<path d="M738.769 191.203L666.436 186.21L701.864 228.001L738.769 191.203Z" fill="#620BA4"/>
<path d="M738.769 191.203L701.864 228.001L712.936 262.766L738.769 191.203Z" fill="#7F22C5"/>
<path d="M701.864 228.001L678.245 237.617L712.936 262.766L701.864 228.001Z" fill="#A844F4"/>
<path d="M678.245 237.617L671.418 275.34L712.936 262.766L678.245 237.617Z" fill="#9836E4"/>
<path d="M671.418 275.34L716.811 287.174L712.936 262.766L671.418 275.34Z" fill="#8D50BC"/>
<path d="M716.811 287.174L747.257 260.547L712.936 262.766L716.811 287.174Z" fill="#C170FF"/>
<path d="M712.936 262.766L747.257 260.547L755.56 221.159L712.936 262.766Z" fill="#480D74"/>
<path d="M755.56 221.159L738.769 191.203L712.936 262.766L755.56 221.159Z" fill="#6F0FB9"/>
<path d="M755.56 221.159L747.257 260.547L772.906 234.566L755.56 221.159Z" fill="#9929EE"/>
<path d="M791.911 216.537L755.56 221.159L772.906 234.566L791.911 216.537Z" fill="#8F1FE4"/>
<path d="M790.251 247.972L797.632 228.001L772.906 234.566L790.251 247.972Z" fill="#B15DF2"/>
<path d="M797.632 228.001L791.911 216.537L772.906 234.566L797.632 228.001Z" fill="#AA45F8"/>
<path d="M747.257 260.547L790.251 247.972L772.906 234.566L747.257 260.547Z" fill="#8429CA"/>
<path d="M797.632 228.001H823.834L818.852 196.935L797.632 228.001Z" fill="#8113D4"/>
<path d="M791.911 216.537L797.632 228.001L818.852 196.935L791.911 216.537Z" fill="#B472E6"/>
<path d="M818.852 196.935L823.834 228.001L857.417 221.807L818.852 196.935Z" fill="#772CB1"/>
<path d="M891 215.612L846.899 191.203L857.417 221.807L891 215.612Z" fill="#AD52F2"/>
<path d="M891 215.612L856.125 167.534L846.899 191.203L891 215.612Z" fill="#8C2BD5"/>
<path d="M846.899 191.203L856.125 167.534L826.786 183.991L846.899 191.203Z" fill="#A42CFF"/>
<path d="M856.125 167.534L784.53 174.376L826.786 183.991L856.125 167.534Z" fill="#9028E0"/>
<path d="M818.852 196.935L846.899 191.203L826.786 183.991L818.852 196.935Z" fill="#5C2686"/>
<path d="M846.899 191.203L818.852 196.935L857.417 221.807L846.899 191.203Z" fill="#9838E2"/>
<path d="M818.852 196.935L826.786 183.991L784.53 174.376L818.852 196.935Z" fill="#6B2D9A"/>
<path d="M784.53 174.376L791.911 216.537L818.852 196.935L784.53 174.376Z" fill="#7722B8"/>
<path d="M755.56 221.159L791.911 216.537L784.53 174.376L755.56 221.159Z" fill="#A23FEE"/>
<path d="M752.977 163.836L755.56 221.159L784.53 174.376L752.977 163.836Z" fill="#9D2BF4"/>
<path d="M738.769 191.203L755.56 221.159L752.977 163.836L738.769 191.203Z" fill="#670DAC"/>
<path d="M784.53 174.376L780.84 141.461L752.977 163.836L784.53 174.376Z" fill="#5A009F"/>
<path d="M752.977 113.353V163.836L780.84 141.461L752.977 113.353Z" fill="#6310A3"/>
<path d="M726.59 148.118L752.977 163.836V113.353L726.59 148.118Z" fill="#9128E2"/>
<path d="M752.977 163.836L726.59 148.118L738.769 191.203L752.977 163.836Z" fill="#8642BA"/>
<path d="M692.638 170.677L738.769 191.203L726.59 148.118L692.638 170.677Z" fill="#811AD0"/>
<path d="M692.638 170.677L726.59 148.118L707.216 133.509L692.638 170.677Z" fill="#9C22F9"/>
<path d="M723.638 118.901L707.216 133.509L726.59 148.118L723.638 118.901Z" fill="#A33CF3"/>
<path d="M752.977 113.353L723.638 118.901L726.59 148.118L752.977 113.353Z" fill="#AC40FF"/>
<path d="M752.977 113.353L732.311 74.1513L723.638 118.901L752.977 113.353Z" fill="#BB67FB"/>
<path d="M732.311 74.1513L696.882 103.923L723.638 118.901L732.311 74.1513Z" fill="#9646D3"/>
<path d="M696.882 103.923L678.43 107.896L707.216 133.509L723.638 118.901L696.882 103.923Z" fill="#6A14AC"/>
<path d="M678.43 107.896L684.519 135.728L707.216 133.509L678.43 107.896Z" fill="#831DD0"/>
<path d="M684.519 135.728L692.638 170.677L707.216 133.509L684.519 135.728Z" fill="#7D19C9"/>
<path d="M801.322 89.6842L732.311 74.1513L752.977 113.353L801.322 89.6842Z" fill="#D49CFF"/>
<path d="M780.84 141.461L801.322 89.6842L752.977 113.353L780.84 141.461Z" fill="#480978"/>
<path d="M692.638 170.677L666.436 186.21L738.769 191.203L692.638 170.677Z" fill="#8413DA"/>
<path d="M657.025 301.043L671.418 275.34L616.799 277.004L657.025 301.043Z" fill="#440F6C"/>
<path d="M657.025 301.043L616.799 277.004L598.347 336.732L657.025 301.043Z" fill="#7D31B8"/>
<path d="M671.418 325.822L657.025 301.043L598.347 336.732L671.418 325.822Z" fill="#BD66FF"/>
<path d="M602.407 372.051L671.418 325.822L598.347 336.732L602.407 372.051Z" fill="#8C14E8"/>
<path d="M616.799 277.004L579.71 275.34L598.347 336.732L616.799 277.004Z" fill="#852FC7"/>
<path d="M579.71 275.34L579.56 275.456C577.805 278.722 562.365 334.43 562.365 336.732H598.347L579.71 275.34Z" fill="#922BE0"/>
<path d="M562.365 336.732V383.303C574.359 368.334 598.347 338.063 598.347 336.732H562.365Z" fill="#420074"/>
<path d="M551.663 296.975L562.365 336.732C562.365 334.43 577.805 278.722 579.56 275.456L551.663 296.975Z" fill="#420074"/>
<path d="M530.812 264.43L551.663 296.975L579.56 275.456C579.594 275.392 579.623 275.349 579.647 275.326L530.812 264.43Z" fill="#7A22BD"/>
<path d="M507.193 309.734L551.663 296.975L530.812 264.43L507.193 309.734Z" fill="#6619A1"/>
<path d="M491.14 287.174L507.193 309.734L530.812 264.43L491.14 287.174Z" fill="#48007E"/>
<path d="M551.663 296.975L507.193 309.734L562.365 336.732L551.663 296.975Z" fill="#6B17AA"/>
<path d="M562.365 336.732L507.193 309.734L513.098 348.197C513.983 348.197 546.312 340.554 562.365 336.732Z" fill="#9B3EE3"/>
<path d="M507.193 309.734L457.926 354.299C475.947 352.265 512.212 348.197 513.098 348.197L507.193 309.734Z" fill="#6C17AD"/>
<path d="M457.926 354.299L507.193 309.734L447.961 316.391L457.926 354.299Z" fill="#9F24FD"/>
<path d="M507.193 309.734L491.14 287.174L447.961 316.391L507.193 309.734Z" fill="#540094"/>
<path d="M491.14 287.174L445.009 264.43C445.993 280.949 447.961 314.468 447.961 316.391L491.14 287.174Z" fill="#6B0FB2"/>
<path d="M445.009 264.43L422.128 309.734L447.961 316.391C447.961 314.468 445.993 280.949 445.009 264.43Z" fill="#6100AC"/>
<path d="M447.961 316.391L422.128 309.734L419.729 341.54L447.961 316.391Z" fill="#5A0899"/>
<path d="M457.926 354.299L447.961 316.391L419.729 341.54L433.938 362.25L457.926 354.299Z" fill="#590599"/>
<path d="M419.729 341.54L391.497 378.893L433.938 362.25L419.729 341.54Z" fill="#420074"/>
<path d="M422.128 309.734L388.361 313.987L419.729 341.54L422.128 309.734Z" fill="#7D21C4"/>
<path d="M419.729 341.54L374.152 347.272L391.497 378.893L419.729 341.54Z" fill="#590996"/>
<path d="M374.152 347.272L419.729 341.54L388.361 313.987L374.152 347.272Z" fill="#470579"/>
<path d="M388.361 313.987L348.688 321.569L374.152 347.272L388.361 313.987Z" fill="#813BB5"/>
<path d="M441.319 397.015L478.038 407L457.926 354.299L441.319 397.015Z" fill="#420074"/>
<path d="M324.331 368.907L391.497 378.893L374.152 347.272L324.331 368.907Z" fill="#420074"/>
</g>
<defs>
<filter id="filter0_d_42_779" x="0" y="0" width="895" height="415" filterUnits="userSpaceOnUse" color-interpolation-filters="sRGB">
<feFlood flood-opacity="0" result="BackgroundImageFix"/>
<feColorMatrix in="SourceAlpha" type="matrix" values="0 0 0 0 0 0 0 0 0 0 0 0 0 0 0 0 0 0 127 0" result="hardAlpha"/>
<feOffset dy="4"/>
<feGaussianBlur stdDeviation="2"/>
<feComposite in2="hardAlpha" operator="out"/>
<feColorMatrix type="matrix" values="0 0 0 0 0 0 0 0 0 0 0 0 0 0 0 0 0 0 0.25 0"/>
<feBlend mode="normal" in2="BackgroundImageFix" result="effect1_dropShadow_42_779"/>
<feBlend mode="normal" in="SourceGraphic" in2="effect1_dropShadow_42_779" result="shape"/>
</filter>
</defs>
</svg>
